<?xml version="1.0" encoding="utf-8"?>
<svg xmlns="http://www.w3.org/2000/svg" xmlns:svg="http://www.w3.org/2000/svg" version="1.1" viewBox="0 0 274 408">
	<title>A diagram of the temple with the salient points labelled with letters. The general layout shows steps to the south leading into the building, flanked by two towers. Inside are two rows of pews, a pulpit in the middle of the temple past the pews to the north, and ancillary functions beyond that.</title>
	<path d="M136.68 0C111.63 0 91.3 20.21 91.3 45.13c.03 3.72.52 7.42 1.46 11.01l1.02-.26c-.91-3.51-1.4-7.12-1.42-10.75 0-24.34 19.83-44.07 44.3-44.07 24.49 0 44.32 19.73 44.32 44.07a43.85 43.85 0 0 1-1.43 10.75l1.02.26a44.9 44.9 0 0 0 1.47-11c0-8.09-2.15-15.67-5.9-22.23h50.74v38.62h-47.58v-.02H93.2v.02h-81.1V407.1h64.95v-10.82H201.7v10.84h60.03V61.53h-33.78V21.85h-52.4A45.4 45.4 0 0 0 136.68 0ZM49.14 2.93v3.85h.9V4.14l1.64 2.64h.95V2.93h-.9v2.2l-1.4-2.2Zm1.81 5.13-.9 2.61-.5 1.27c-.3.66-.66.9-.66.9s1.26 1.46 1.12 1.87l.42 4.4.19 11.79H37.98a.26.26 0 1 0 0 .53h12.64l-.25 14.1-.1 10.6.05.38.22.25.41.1.41-.1.22-.25.06-.38-.11-10.6-.25-14.1h12.19a.26.26 0 1 0 0-.53H51.28l.2-11.78.4-4.4c-.13-.42 1.13-1.88 1.13-1.88s-.35-.24-.66-.9l-.5-1.27zm74.32 8.45v8.64h22.79V16.5zm.79.79h21.2v7.06h-21.2Zm-3.79 2.72a1 1 0 1 0 0 2 1 1 0 0 0 0-2zm28.58 0a1 1 0 1 0 0 2 1 1 0 0 0 0-2zm4.53.34v5.78h5.78v-5.78Zm-102.3.67a1 1 0 0 0-1 1.03v6.5c0 .86.69 1.56 1.54 1.56h6.71a1 1 0 1 0-.92-.53h-5.79c-.57 0-1.02-.46-1.02-1.02V22.9a1 1 0 1 0 .47-1.88zm-4.28 0a1 1 0 1 0 .47 1.88v5.66c0 .56-.45 1.02-1.02 1.02h-5.79a1 1 0 1 0-.92.52h.03a1.02 1.02 0 0 0 .02 0h6.66c.85 0 1.55-.7 1.55-1.54v-6.54a1 1 0 0 0-1-1zm107.37.12h4.2v4.2h-4.2zm-22.57 4.56v3.6h6.41v-3.6zm.8.8h4.82v2.01h-4.83zM31.1 29.24l1.04 3.85h1.1l.67-2.51.69 2.5h1.1l1.03-3.84h-1l-.63 2.65-.67-2.65h-1l-.7 2.65-.6-2.65zm33.8 0v3.85h2.79v-.75h-1.8v-.95h1.67v-.74h-1.67v-.67h1.8v-.74zm-23.32 3.02h-.04a1 1 0 1 0 .92.53h5.79c.57 0 1.02.45 1.02 1.02v5.65a1 1 0 1 0 .53.86v-6.51c0-.85-.7-1.55-1.55-1.55h-6.67zm18.71 0h-6.67c-.85 0-1.55.7-1.55 1.55V40.34a1 1 0 1 0 .53-.88v-5.65c0-.57.45-1.02 1.02-1.02h5.8a1 1 0 1 0 .91-.53h-.04zm40.04 4.05v13.94h21.64V36.3Zm51.86 0v13.94h21.64V36.3Zm-51.07.8h3.42l.06 12.34h-3.48zm4.21 0h3.28l.06 12.34h-3.27zm4.07 0h3.44l.06 12.34h-3.44zm4.23 0h3.25l.06 12.34h-3.25zm4.04 0h3.5v12.34h-3.44zm35.3 0h3.43l.06 12.34h-3.48zm4.22 0h3.28l.06 12.34h-3.28zm4.07 0h3.44l.06 12.34h-3.44zm4.23 0h3.25l.06 12.34h-3.25zm4.04 0h3.5v12.34h-3.44zm-32.78 2a4.04 4.04 0 1 0 .01 8.09 4.04 4.04 0 0 0 0-8.09zm0 .8a3.24 3.24 0 1 1 0 6.48 3.24 3.24 0 1 1 0-6.48zm-85.7 17.28c-.5 0-.91.1-1.24.34-.32.22-.48.51-.48.87 0 .27.07.5.21.67.15.18.38.33.7.43.15.05.3.09.46.12l.46.1c.13.03.24.07.31.13.07.07.1.14.1.22 0 .1-.02.16-.07.2a.58.58 0 0 1-.18.12 2.38 2.38 0 0 1-.48.07 2.3 2.3 0 0 1-1.42-.5h-.11v.92a3.73 3.73 0 0 0 1.5.3c.55 0 .99-.13 1.3-.36.33-.24.49-.55.49-.93a.96.96 0 0 0-.21-.64c-.14-.17-.36-.3-.65-.4a4.22 4.22 0 0 0-.83-.2c-.22-.04-.36-.1-.44-.14a.27.27 0 0 1-.12-.24c0-.07.03-.13.08-.18.04-.05.1-.09.17-.12a.93.93 0 0 1 .23-.06l.25-.02c.24 0 .47.05.69.13.23.08.42.19.57.31h.1v-.89a3.76 3.76 0 0 0-1.4-.26Zm-37.9 5.4h60a3.58 3.58 0 0 0 1.48 6.82 3.57 3.57 0 0 0 1.47-6.83h2.46l-.28.35a.4.4 0 0 0 .63.5l.66-.85H93.2v19.25h86.12V62.58h18.2a3.58 3.58 0 1 0 2.94 0h2.5l-.3.33a.4.4 0 0 0 .6.54l.78-.87h56.64V352.8H201.7v.02h-.53a3.57 3.57 0 1 0-4.38 0H76.82a3.57 3.57 0 1 0-4.38 0h-59.3Zm81.1 0h84v3.11h-84zm-19.62.43a2.8 2.8 0 1 1 0 5.63 2.8 2.8 0 1 1 0-5.63zm124.35 0a2.8 2.8 0 1 1 0 5.63 2.8 2.8 0 1 1 0-5.63zM94.24 66.5h84.01v2.9h-84Zm0 3.7h84.01v2.91h-84Zm0 3.7h84.01v3.23h-84Zm0 4.03h84.01v2.84h-84ZM134.7 93.2a5.4 5.4 0 0 0-3.47 9.53v6.46h7.05v-6.56a5.38 5.38 0 0 0-3.58-9.43zm0 .8a4.6 4.6 0 1 1 0 9.2 4.6 4.6 0 0 1 0-9.2zm-54.24 5.66a.4.4 0 0 0-.27.14l-1.9 2.28a.4.4 0 0 0 .62.51l1.9-2.28a.4.4 0 0 0-.35-.65zm124.36 0a.4.4 0 0 0-.27.14l-1.9 2.28a.4.4 0 1 0 .62.51l1.89-2.28a.4.4 0 0 0-.34-.65zm-130.18 1.76a3.58 3.58 0 0 0 0 7.14 3.57 3.57 0 0 0 0-7.14zm124.35 0a3.58 3.58 0 0 0 0 7.14 3.58 3.58 0 0 0 0-7.14zm-124.35.76a2.8 2.8 0 1 1 0 5.63 2.8 2.8 0 1 1 0-5.63zm124.35 0a2.8 2.8 0 1 1 0 5.63 2.8 2.8 0 1 1 0-5.63zm-61.39.96v5.37h-5.69v-5.29a5.36 5.36 0 0 0 5.7-.08zm-109.78 6.19v31.28h51.88l-1.4 1.7a.4.4 0 0 0 .61.5l1.82-2.2h30.65v-31.28h-.54zm129.11 0v31.28h47.12l-1.4 1.7a.4.4 0 1 0 .62.5l1.82-2.2h38.05v-31.28h-.54zM28.9 110.4h4.69v29.12h-4.7zm5.43 0h5.1v29.12h-5.1zm5.85 0h4.56v29.12h-4.56zm5.3 0h4.42v29.12h-4.42zm5.16 0h4.86v29.12h-4.86zm5.6 0h4.5v29.12h-4.5zm5.25 0h4.72v29.12h-4.72zm5.47 0h4.33v29.12h-4.33zm5.07 0h4.18v29.12h-4.18zm4.93 0h4.73v29.12h-4.73zm5.48 0h4.47v29.12h-4.47zm5.21 0h4.5v29.12h-4.5zm5.25 0h4.94v29.12h-4.94zm5.68 0h5.41v29.12h-5.4zm6.16 0h5.56v29.12h-5.56zm53.29.01h5.11v29.1h-5.11zm5.86 0h5.44v29.1h-5.44zm6.18 0h5.08v29.1h-5.08zm5.82 0h5.08v29.1h-5.08zm5.83 0h5.6v29.1h-5.6zm6.35 0h5.6v29.1h-5.6zm6.35 0h5.32v29.1h-5.32zm6.06 0h5.18v29.1h-5.18zm5.92 0h5.5v29.1h-5.5zm6.26 0h4.9v29.1h-4.9zm5.65 0h5.6v29.1h-5.6zm6.35 0h4.94v29.1h-4.94zm5.69 0h5.4v29.1h-5.4zm6.15 0h5.55v29.1h-5.55zM74.63 141.64a3.58 3.58 0 0 0 0 7.14 3.57 3.57 0 0 0 0-7.14zm124.35 0a3.58 3.58 0 1 0 .01 7.16 3.58 3.58 0 0 0 0-7.16zm-124.35.76a2.8 2.8 0 1 1 0 5.62 2.8 2.8 0 1 1 0-5.62zm124.35 0a2.8 2.8 0 1 1 0 5.62 2.8 2.8 0 1 1 0-5.62zM96.22 160.3v106.35h31.29V160.31zm53.98 0v106.35h31.28V160.31zm64.02 0v106.35H242V160.31zm-185.35.1V266.75h35.55V160.4Zm186.5 1.05h25.48v3.96h-25.48zm-117.93.07h28.85v3.86H97.44Zm53.97 0h28.86v3.86H151.4zm-121.25.18h32.96v3.76H30.16Zm185.21 4.4h25.48v4.76h-25.48zm-117.93.03h28.85v4.71H97.44Zm53.97 0h28.86v4.71H151.4zm-121.25.12h32.96v4.66H30.16Zm185.21 5.32h25.48v5.64h-25.48zm-117.93.02h28.85v5.6H97.44Zm53.97 0h28.86v5.6H151.4zm-121.25.12h32.96v5.55H30.16Zm185.21 6.2h25.48v4.96h-25.48zm-117.93.03h28.85v4.9H97.44Zm53.97 0h28.86v4.9H151.4zm-121.25.11h32.96v4.87H30.16Zm50.3 2.04a.4.4 0 0 0-.28.14l-1.9 2.29a.4.4 0 0 0 .62.5l1.9-2.28a.4.4 0 0 0-.35-.65zm124.35 0a.4.4 0 0 0-.27.14l-1.9 2.29a.4.4 0 1 0 .62.5l1.89-2.28a.4.4 0 0 0-.34-.65zm-130.18 1.77a3.58 3.58 0 0 0 0 7.14 3.57 3.57 0 0 0 0-7.14zm124.35 0a3.58 3.58 0 0 0 0 7.14 3.58 3.58 0 0 0 0-7.14zm-124.35.75a2.8 2.8 0 1 1 0 5.63 2.8 2.8 0 1 1 0-5.63zm124.35 0a2.8 2.8 0 1 1 0 5.63 2.8 2.8 0 1 1 0-5.63zm16.4.96h25.47v5.12h-25.48zm-117.94.02h28.85v5.08H97.44Zm53.97 0h28.86v5.08H151.4zm-121.25.12h32.96v5.03H30.16Zm185.21 5.68h25.48v4.6h-25.48zm-117.93.02h28.85v4.55H97.44Zm53.97 0h28.86v4.55H151.4zm-121.25.12h32.96v4.5H30.16Zm185.21 5.15h25.48V200h-25.48zm-117.93.03h28.85v5.27H97.44Zm53.97 0h28.86v5.27H151.4zm-121.25.11h32.96v5.23H30.16Zm185.21 5.88h25.48v5.65h-25.48zm-117.93.02h28.85v5.6H97.44Zm53.97 0h28.86v5.6H151.4zm-121.25.12h32.96v5.56H30.16Zm185.21 6.21h25.48v4.96h-25.48zm-117.93.03h28.85v4.9H97.44Zm53.97 0h28.86v4.9H151.4zm-121.25.11h32.96v4.86H30.16Zm185.21 5.52h25.48v5.12h-25.48zm-117.93.02h28.85v5.07H97.44Zm53.97 0h28.86v5.07H151.4zm-121.25.12h32.96v5.03H30.16Zm185.21 5.68h25.48v5.65h-25.48zm-117.93.02h28.85v5.6H97.44Zm53.97 0h28.86v5.6H151.4zm-121.25.12h32.96v5.55H30.16Zm50.3 2.17a.4.4 0 0 0-.28.14l-1.9 2.28a.4.4 0 0 0 .62.51l1.9-2.28a.4.4 0 0 0-.35-.65zm124.35 0a.4.4 0 0 0-.27.14l-1.9 2.28a.4.4 0 1 0 .62.51l1.89-2.28a.4.4 0 0 0-.34-.65zM74.63 222.6a3.58 3.58 0 1 0 0 7.15 3.58 3.58 0 0 0 0-7.15zm124.35 0a3.58 3.58 0 1 0 0 7.15 3.58 3.58 0 0 0 0-7.15zm-124.35.76a2.8 2.8 0 1 1-2.81 2.81 2.8 2.8 0 0 1 2.8-2.81zm124.35 0a2.8 2.8 0 1 1-2.81 2.81 2.8 2.8 0 0 1 2.81-2.81zm16.4 1.52h25.47v4.84h-25.48zm-117.94.02h28.85v4.8H97.44Zm53.97 0h28.86v4.8H151.4zm-121.25.12h32.96v4.75H30.16Zm185.21 5.4h25.48v5.12h-25.48zm-117.93.02h28.85v5.08H97.44Zm53.97 0h28.86v5.08H151.4zm-121.25.12h32.96v5.03H30.16Zm185.21 5.68h25.48v5.65h-25.48zm-117.93.02h28.85v5.6H97.44Zm53.97 0h28.86v5.6H151.4zm-121.25.12h32.96v5.56H30.16Zm185.21 6.21h25.48v5.12h-25.48zm-117.93.02h28.85v5.08H97.44Zm53.97 0h28.86v5.08H151.4zm-121.25.12h32.96v5.03H30.16Zm185.21 5.68h25.48v5.12h-25.48zm-117.93.02h28.85v5.08H97.44Zm53.97 0h28.86v5.08H151.4zm-121.25.12h32.96v5.03H30.16Zm185.21 5.68h25.48v5.48h-25.48zm-117.93.02h28.85v5.44H97.44Zm53.97 0h28.86v5.44H151.4zm-121.25.12h32.96v5.4H30.16Zm185.21 6.05h25.48v5.09h-25.48zm-117.93.02h28.85v5H97.44Zm53.97 0h28.86v5H151.4zm-121.25.12h32.96v4.89H30.16Zm50.3 2.61a.4.4 0 0 0-.28.14l-1.9 2.29a.4.4 0 0 0 .62.5l1.9-2.28a.4.4 0 0 0-.35-.65zm124.35 0a.4.4 0 0 0-.27.14l-1.9 2.29a.4.4 0 1 0 .62.5l1.89-2.28a.4.4 0 0 0-.34-.65zm-130.18 1.76a3.58 3.58 0 0 0 0 7.15 3.58 3.58 0 0 0 0-7.15zm124.35 0a3.58 3.58 0 1 0 .01 7.16 3.58 3.58 0 0 0 0-7.16zm-124.35.76a2.8 2.8 0 1 1 0 5.63 2.8 2.8 0 1 1 0-5.63zm124.35 0a2.8 2.8 0 1 1 0 5.63 2.8 2.8 0 1 1 0-5.63zM80.45 303.92a.4.4 0 0 0-.27.14l-1.9 2.28a.4.4 0 1 0 .62.51l1.9-2.28a.4.4 0 0 0-.35-.65zm124.36 0a.4.4 0 0 0-.27.14l-1.9 2.28a.4.4 0 1 0 .62.51l1.89-2.28a.4.4 0 0 0-.34-.65zm-130.18 1.76a3.58 3.58 0 0 0 0 7.14 3.58 3.58 0 0 0 0-7.14zm124.35 0a3.58 3.58 0 1 0 .01 7.16 3.58 3.58 0 0 0 0-7.16zm-124.35.76a2.8 2.8 0 1 1 0 5.62 2.8 2.8 0 1 1 0-5.62zm124.35 0a2.8 2.8 0 1 1 0 5.62 2.8 2.8 0 1 1 0-5.62zM80.45 344.66a.4.4 0 0 0-.27.14l-1.9 2.29a.4.4 0 0 0 .62.5l1.9-2.28a.4.4 0 0 0-.35-.65zm124.36 0a.4.4 0 0 0-.27.14l-1.9 2.29a.4.4 0 1 0 .62.5l1.89-2.28a.4.4 0 0 0-.34-.65zm-130.18 2.52a2.8 2.8 0 1 1 0 5.63 2.8 2.8 0 1 1 0-5.63zm124.35 0a2.8 2.8 0 1 1 0 5.63 2.8 2.8 0 1 1 0-5.63zm-121.94 6.7H201.7v6.85H77.04Zm125.72 0h57.92v52.18h-57.92zm-189.61 0h62.83v52.16H13.15Zm63.89 7.65H201.7v6.7H77.04Zm0 7.5H201.7v5.94H77.04Zm0 6.74H201.7v6.1H77.04Zm0 6.89H201.7v5.81H77.04Zm0 6.6 124.66.01v5.95H77.04z"/>
	<text font-size="12.7" font-weight="700" x="41.1" y="219.11">A</text>
	<text font-size="12.7" font-weight="700" x="107.78" y="219.11">B</text>
	<text font-size="12.7" font-weight="700" x="161.22" y="219.11">C</text>
	<text font-size="12.7" font-weight="700" x="223.14" y="219.11">D</text>
	<text font-size="12.7" font-weight="700" x="16.42" y="129.9">E</text>
	<text font-size="12.7" font-weight="700" x="246.07" y="129.9">F</text>
	<text font-size="9.88" font-weight="700" x="107.23" y="34.96">G</text>
	<text font-size="9.88" font-weight="700" x="158.56" y="34.96">H</text>
	<text font-size="12.7" font-weight="700" x="180.99" y="76.45">I</text>
	<text font-size="14.11" font-weight="700" x="39.75" y="384.05">K</text>
	<text font-size="14.11" font-weight="700" x="227.08" y="384.05">L</text>
	<text font-size="12.7" font-weight="700" x="133.1" y="377.03">M</text>
	<text font-size="12.7" font-weight="700" x="195.45" y="46.45">N</text>
	<text font-size="10.58" font-style="italic" font-weight="700" x="133.26" y="15.58">a</text>
	<text font-size="10.58" font-style="italic" font-weight="700" x="162.89" y="24.58">b</text>
	<text font-size="10.58" font-style="italic" font-weight="700" x="133.26" y="56.02">c</text>
	<text font-size="12.7" font-style="italic" font-weight="700" x="140.83" y="102.6">d</text>
	<text font-size="14.11" font-style="italic" font-weight="700" x=".01" y="148.03">e</text>
	<text font-size="14.11" font-style="italic" font-weight="700" x="263.54" y="148.03">f</text>
	<text font-size="14.11" font-style="italic" font-weight="700" x=".01" y="342.23">g</text>
	<text font-size="14.11" font-style="italic" font-weight="700" x="263.72" y="342.23">h</text>
	<text font-size="12.7" font-style="italic" font-weight="700" x="113.77" y="130.76">i</text>
	<text font-size="12.7" font-weight="700" x="183.98" y="165.14">k</text>
</svg>
